<svg xmlns="http://www.w3.org/2000/svg" viewBox="0 0 512 512" width="512" height="512">
  <defs>
    <linearGradient id="bg" x1="0%" y1="0%" x2="100%" y2="100%">
      <stop offset="0%" stop-color="#0a0a0c" />
      <stop offset="100%" stop-color="#181424" />
    </linearGradient>
    <linearGradient id="fire" x1="0%" y1="100%" x2="0%" y2="0%">
      <stop offset="0%" stop-color="#ff2a00" />
      <stop offset="50%" stop-color="#ff7700" />
      <stop offset="100%" stop-color="#ffdd00" />
    </linearGradient>
    <filter id="glow" x="-20%" y="-20%" width="140%" height="140%">
      <feGaussianBlur stdDeviation="16" result="blur" />
      <feComposite in="SourceGraphic" in2="blur" operator="over" />
    </filter>
  </defs>
  <rect width="512" height="512" rx="128" fill="url(#bg)" />
  <path filter="url(#glow)" fill="url(#fire)" d="M256 96 C256 96 368 208 368 304 C368 365.856 317.856 416 256 416 C194.144 416 144 365.856 144 304 C144 260 176 220 200 192 C192 230 216 270 232 288 C232 288 288 230 256 96 Z" />
  <path fill="#ffffff" opacity="0.3" d="M256 384 C220 384 192 355 192 320 C192 290 208 270 216 250 C210 275 228 295 240 305 C240 305 272 265 256 220 C270 260 304 290 304 320 C304 355 282 384 256 384 Z" />
</svg>
